Coordinates
version=1
nRows=15
nColumns=45
inDegrees=yes

Units are S.I. units (second, meters, Newtons, ...)
If the header above contains a line with 'inDegrees', this indicates whether rotational values are in degrees (yes) or radians (no).

endheader
time	HipInputX	HipInputY	HipInputZ	TranslationInputX	TranslationInputY	TranslationInputZ	SpineInputX	SpineInputY	TorsoInput	LEInput	LFInput	LScapInputX	LScapInputY	LSInputX	LSInputY	LSInputZ	LWInputX	LWInputY	REInput	RFInput	RScapInputX	RScapInputY	RSInputX	RSInputY	RSInputZ	RWInputX	RWInputY	NeckInputX	NeckInputY	NeckInputZ	hip_flexion_r	hip_adduction_r	hip_rotation_r	knee_angle_r	ankle_angle_r	subtalar_angle_r	mtp_angle_r	hip_flexion_l	hip_adduction_l	hip_rotation_l	knee_angle_l	ankle_angle_l	subtalar_angle_l	mtp_angle_l
      0.90833333	    -90.84088255	    -13.64528662	   -203.42058064	      1.08313409	      0.77736789	     -0.07016008	     -9.42935093	      9.58008344	    -41.97950745	    -56.90280577	     67.60252915	     36.85951415	    -19.02724273	    -34.43865432	     27.61682709	   -422.79435012	     94.25953716	     33.36327321	    -92.96824545	    -70.65704696	    -34.53459327	    -16.04731705	   -126.21458251	     76.74209925	   -177.57620616	     28.23725695	    128.64353031	     -3.75751986	     -2.38553417	     45.67855383	     98.74113258	   -145.41198573	     73.36060242	     19.54938619	    -99.43285002	      0.00000000	      0.00000000	     93.34315778	     16.63932329	     68.55761777	     28.22305499	   -817.85695909	      0.00000000	      0.00000000
      0.91111111	    -90.84622596	    -13.64856228	   -203.54161253	      1.08294822	      0.77722260	     -0.07026190	     -9.45861552	      9.51825343	    -42.33375512	    -56.41389700	     67.34918662	     36.84976416	    -18.96763904	    -34.04394654	     27.18980927	   -422.94455373	     94.10098356	     34.15670947	    -92.53455285	    -70.36525994	    -34.51838381	    -16.10005544	   -126.87570084	     77.37063109	   -177.83982797	     28.35704517	    128.87276899	     -3.78974231	     -2.50188671	     45.89891909	     98.76568011	   -145.33986840	     73.38887402	     19.56643236	    -99.48965766	      0.00000000	      0.00000000	     93.30554463	     16.73241432	     68.55498275	     28.22538368	   -817.91849186	      0.00000000	      0.00000000
      0.91388889	    -90.83975088	    -13.64402973	   -203.64902822	      1.08272011	      0.77710976	     -0.07040997	     -9.49117222	      9.45842912	    -42.70451296	    -55.84299908	     67.07087318	     36.76603878	    -18.88666625	    -33.69229708	     26.79136676	   -423.09202769	     93.97079948	     34.99732903	    -92.05642121	    -70.01654322	    -34.51779490	    -16.07438802	   -127.63437810	     78.01037379	   -178.02479535	     28.41800391	    129.04000006	     -3.79909716	     -2.55850917	     46.17160195	     98.76921136	   -145.25377700	     73.41736539	     19.58461794	    -99.57492983	      0.00000000	      0.00000000	     93.26842968	     16.85566808	     68.54661976	     28.22396990	   -818.00803840	      0.00000000	      0.00000000
      0.91666667	    -90.84780761	    -13.64543933	   -203.76638577	      1.08255350	      0.77701501	     -0.07053750	     -9.52692328	      9.39266521	    -43.05758528	    -55.33083808	     66.80178059	     36.70848120	    -18.85614651	    -33.29615262	     26.40017321	   -423.22901463	     93.80861706	     35.80247623	    -91.61292095	    -69.68962925	    -34.46647093	    -16.12246583	   -128.32204902	     78.64081678	   -178.26287227	     28.52350974	    129.26910602	     -3.81284016	     -2.68954159	     46.38383782	     98.78798147	   -145.17925708	     73.44660707	     19.60560186	    -99.64010479	      0.00000000	      0.00000000	     93.23181084	     16.94541569	     68.54544863	     28.22477906	   -818.08075803	      0.00000000	      0.00000000
      0.91944444	    -90.84136029	    -13.63482462	   -203.86502383	      1.08233507	      0.77691199	     -0.07065096	     -9.56926771	      9.32986190	    -43.44966462	    -54.71862662	     66.50987483	     36.59352574	    -18.71896299	    -32.99601420	     26.00822440	   -423.36838889	     93.70429283	     36.68210570	    -91.12702813	    -69.28849063	    -34.47014267	    -16.06723216	   -129.15895814	     79.30741903	   -178.36973573	     28.53130544	    129.42540113	     -3.82508862	     -2.70173992	     46.69047533	     98.78323968	   -145.08572549	     73.46177299	     19.61783262	    -99.74598829	      0.00000000	      0.00000000	     93.20511481	     17.07508227	     68.53714585	     28.21817233	   -818.19689720	      0.00000000	      0.00000000
      0.92222222	    -90.93131361	    -13.64419362	   -204.00038411	      1.08206466	      0.77629576	     -0.07093511	     -9.48354297	      9.15284147	    -43.37851888	    -55.31998753	     66.42853400	     36.67053537	    -18.89036242	    -32.18908601	     25.57661600	   -424.33287369	     93.88915244	     36.97059886	    -91.15766030	    -67.61688973	    -35.34949868	    -15.15971580	   -141.01248438	     79.37223317	   -168.47121479	     27.94223366	    129.53661844	     -3.95850092	     -2.55145099	     46.77315326	     98.91723860	   -145.08825721	     73.45138783	     19.96054497	   -103.50180940	      0.00000000	      0.00000000	     93.19115298	     17.04411940	     68.61382354	     27.82542835	   -820.76731282	      0.00000000	      0.00000000
      0.92500000	    -90.91373000	    -13.65695584	   -204.12352807	      1.08192431	      0.77620074	     -0.07104555	     -9.50316321	      9.13142167	    -43.67048954	    -54.85559459	     66.18359222	     36.61902503	    -18.94879212	    -31.76114647	     25.17434274	   -424.43736158	     93.66472171	     37.68415498	    -90.82387526	    -67.37427945	    -35.14687570	    -15.33817286	   -141.53545827	     79.91381182	   -168.82190007	     28.15618711	    129.83356868	     -3.93831570	     -2.74362793	     46.88117901	     98.95122449	   -145.03201967	     73.51317780	     20.00153598	   -103.51836613	      0.00000000	      0.00000000	     93.14228230	     17.09235797	     68.57495582	     27.83868661	   -820.78072402	      0.00000000	      0.00000000
      0.92777778	    -90.87490678	    -13.63040124	   -204.19337836	      1.08165030	      0.77606334	     -0.07115141	     -9.54572911	      9.10068006	    -44.02415077	    -54.06374075	     65.92087746	     36.47225393	    -18.90127449	    -31.47255089	     24.71325994	   -424.52582197	     93.51314246	     38.68417550	    -90.30690268	    -67.09846770	    -35.04290714	    -15.34650293	   -142.23238723	     80.58011790	   -169.08067510	     28.22833439	    130.01751888	     -3.93249116	     -2.68669064	     47.08224009	     98.93650095	   -144.95824191	     73.56469184	     19.98171338	   -103.56242019	      0.00000000	      0.00000000	     93.08535062	     17.19814224	     68.55391038	     27.84591525	   -820.81904449	      0.00000000	      0.00000000
      0.93055556	    -90.88142850	    -13.64307964	   -204.32594763	      1.08149205	      0.77596025	     -0.07122717	     -9.57619210	      9.04374508	    -44.35393863	    -53.58410469	     65.64887686	     36.43354241	    -18.90318833	    -31.08626384	     24.32802001	   -424.57585150	     93.30652210	     39.43582931	    -89.94498895	    -66.81821834	    -34.85282789	    -15.51175723	   -142.81248909	     81.19433483	   -169.33491865	     28.38829015	    130.31294676	     -3.91799805	     -2.87329356	     47.23791538	     98.97773677	   -144.89464386	     73.60293553	     20.02127813	   -103.58852249	      0.00000000	      0.00000000	     93.03619109	     17.26573224	     68.55118116	     27.85499876	   -820.85185710	      0.00000000	      0.00000000
      0.93333333	    -90.87193924	    -13.63655253	   -204.42596282	      1.08128177	      0.77586483	     -0.07131646	     -9.61741346	      9.00042852	    -44.68328720	    -52.96845772	     65.36325856	     36.32794782	    -18.88815915	    -30.75659472	     23.92247654	   -424.63108826	     93.12030861	     40.28769864	    -89.53124523	    -66.51793859	    -34.67632591	    -15.62011714	   -143.45021329	     81.82289406	   -169.57714318	     28.51221921	    130.56280011	     -3.91260446	     -2.94217998	     47.42261807	     98.98807141	   -144.82999519	     73.63623762	     20.02278649	   -103.62235733	      0.00000000	      0.00000000	     92.99748390	     17.34712781	     68.53654420	     27.86014357	   -820.89468755	      0.00000000	      0.00000000
      0.93611111	    -90.87333566	    -13.64356410	   -204.54461574	      1.08109704	      0.77577607	     -0.07139656	     -9.65040063	      8.94986114	    -44.99721910	    -52.42947171	     65.06621725	     36.21754579	    -18.92251126	    -30.39218617	     23.56071806	   -424.67260334	     92.91521721	     41.05947609	    -89.14937395	    -66.21126794	    -34.47184600	    -15.75351173	   -144.04639550	     82.42497991	   -169.82086684	     28.65788137	    130.81274918	     -3.86656264	     -3.09434570	     47.61812241	     99.00941525	   -144.76889237	     73.66924992	     20.04273327	   -103.65113664	      0.00000000	      0.00000000	     92.95529937	     17.42072426	     68.52718546	     27.86602035	   -820.93594230	      0.00000000	      0.00000000
      0.93888889	    -90.84724635	    -13.62002589	   -204.62975678	      1.08085608	      0.77565366	     -0.07142125	     -9.69534856	      8.90580735	    -45.36459370	    -51.68472383	     64.73977196	     36.06889065	    -18.87494995	    -30.11412911	     23.15159489	   -424.67330910	     92.77432326	     42.02666413	    -88.65707794	    -65.86814804	    -34.34296451	    -15.76075113	   -144.77481233	     83.13224656	   -169.99428369	     28.68567965	    131.01460822	     -3.90819731	     -3.02777954	     47.87879615	     99.00672287	   -144.68770489	     73.69264123	     20.02983386	   -103.69916718	      0.00000000	      0.00000000	     92.90313512	     17.54287484	     68.51445117	     27.85883977	   -821.00566794	      0.00000000	      0.00000000
      0.94166667	    -90.91744427	    -13.60683092	   -204.76305802	      1.08061962	      0.77495642	     -0.07181229	     -9.54412588	      8.73272146	    -45.40765350	    -52.35869590	     64.55673865	     36.00603406	    -18.65466211	    -29.50032407	     22.89421995	   -425.63950043	     93.10792561	     42.47770614	    -88.37989599	    -64.08917380	    -35.92828552	    -14.71043585	   -166.89030734	     82.81012563	   -149.64830794	     27.90122694	    130.79121490	     -4.25702702	     -2.85940995	     48.11586594	     99.09804686	   -144.64711316	     73.69458591	     20.49762315	   -108.07725141	      0.00000000	      0.00000000	     92.87387938	     17.45227709	     68.58727099	     27.26098423	   -824.72052873	      0.00000000	      0.00000000
      0.94444444	    -90.89662594	    -13.61320032	   -204.85473684	      1.08037207	      0.77485446	     -0.07187001	     -9.58315722	      8.70413195	    -45.63336498	    -51.70194465	     64.28183175	     35.91096053	    -18.82359730	    -29.14687724	     22.43587630	   -425.66803342	     92.90341322	     43.28798358	    -88.13354246	    -63.82221308	    -35.48935597	    -14.86426282	   -167.54696974	     83.28729453	   -149.94652109	     28.10247199	    131.14730258	     -4.17136779	     -2.89705275	     48.22263364	     99.12443242	   -144.59154419	     73.74573919	     20.50031507	   -108.13049174	      0.00000000	      0.00000000	     92.82704287	     17.51286685	     68.56540089	     27.27598835	   -824.71189815	      0.00000000	      0.00000000
      0.94722222	    -90.90221836	    -13.64018892	   -204.96322441	      1.08016023	      0.77476662	     -0.07190412	     -9.61141210	      8.65845418	    -45.85507999	    -51.12110634	     64.00470200	     35.83941490	    -19.01674735	    -28.79165572	     22.00012709	   -425.68126649	     92.68258889	     44.01851088	    -87.93594357	    -63.53736901	    -35.04261047	    -15.02082022	   -168.17627952	     83.71700983	   -150.24127884	     28.30678068	    131.48663446	     -4.07041424	     -3.09224622	     48.33265090	     99.16406675	   -144.54108869	     73.78014447	     20.53496795	   -108.16273481	      0.00000000	      0.00000000	     92.79723177	     17.56288846	     68.55744566	     27.30047035	   -824.72296464	      0.00000000	      0.00000000
